<svg width="797" height="273" viewBox="0 0 797 273" fill="none" xmlns="http://www.w3.org/2000/svg">
<path d="M251.934 268.272H276.383V211.369C280.71 216.562 286.191 220.601 292.826 223.485C299.461 226.226 306.673 227.596 314.462 227.596C325.712 227.596 335.737 224.928 344.536 219.591C353.334 214.11 360.258 206.754 365.306 197.522C370.499 188.291 373.095 177.906 373.095 166.367C373.095 154.828 370.499 144.442 365.306 135.211C360.258 125.98 353.262 118.696 344.319 113.359C335.521 108.022 325.568 105.354 314.462 105.354C306.096 105.354 298.523 106.868 291.744 109.897C285.109 112.926 279.628 117.181 275.301 122.662V107.95H236.356V129.586H251.934V268.272ZM312.082 204.879C305.303 204.879 299.172 203.22 293.691 199.902C288.354 196.585 284.099 192.041 280.926 186.272C277.897 180.358 276.383 173.723 276.383 166.367C276.383 159.011 277.897 152.448 280.926 146.678C284.099 140.909 288.354 136.365 293.691 133.047C299.172 129.73 305.303 128.071 312.082 128.071C318.861 128.071 324.919 129.73 330.256 133.047C335.593 136.365 339.776 140.909 342.805 146.678C345.978 152.448 347.565 159.011 347.565 166.367C347.565 173.723 346.05 180.358 343.021 186.272C339.992 192.041 335.809 196.585 330.472 199.902C325.135 203.22 319.005 204.879 312.082 204.879ZM396.886 225H421.335V130.018H459.63V107.95H396.886V225ZM487.148 91.9393H511.597V63.8126H487.148V91.9393ZM487.148 225H511.597V107.95H469.407V130.018H487.148V225ZM595.744 227.596C603.821 227.596 611.321 226.154 618.245 223.269C625.168 220.384 631.154 216.49 636.203 211.586C641.395 206.537 645.145 200.912 647.453 194.71L626.034 184.541C623.437 190.743 619.471 195.719 614.134 199.47C608.941 203.076 602.811 204.879 595.744 204.879C589.109 204.879 583.123 203.22 577.786 199.902C572.593 196.585 568.482 192.041 565.453 186.272C562.424 180.358 560.91 173.723 560.91 166.367C560.91 158.866 562.424 152.303 565.453 146.678C568.482 140.909 572.593 136.365 577.786 133.047C583.123 129.73 589.109 128.071 595.744 128.071C602.811 128.071 609.014 129.946 614.35 133.697C619.687 137.303 623.582 142.135 626.034 148.193L647.453 138.24C645.001 131.749 641.179 126.052 635.986 121.148C630.938 116.099 624.952 112.205 618.028 109.464C611.105 106.724 603.677 105.354 595.744 105.354C584.06 105.354 573.675 108.022 564.588 113.359C555.501 118.551 548.361 125.763 543.168 134.995C537.976 144.082 535.379 154.467 535.379 166.15C535.379 177.834 537.976 188.291 543.168 197.522C548.361 206.754 555.501 214.11 564.588 219.591C573.675 224.928 584.06 227.596 595.744 227.596ZM728.468 227.596H770.441V205.96H728.468C718.227 205.96 709.789 203.076 703.154 197.306C696.519 191.392 692.841 183.459 692.12 173.507H779.096C779.529 171.776 779.817 169.901 779.961 167.881C780.106 165.862 780.178 163.915 780.178 162.04C780.178 151.943 777.942 142.639 773.471 134.129C769.143 125.475 762.797 118.551 754.431 113.359C746.209 108.022 736.185 105.354 724.357 105.354C713.395 105.354 703.514 108.022 694.716 113.359C686.062 118.551 679.21 125.763 674.162 134.995C669.113 144.082 666.589 154.467 666.589 166.15C666.589 177.69 669.113 188.147 674.162 197.522C679.354 206.754 686.566 214.11 695.798 219.591C705.173 224.928 716.063 227.596 728.468 227.596ZM724.357 125.908C732.579 125.908 739.502 128.504 745.127 133.697C750.753 138.889 753.782 145.668 754.215 154.034H692.552C693.995 145.091 697.673 138.168 703.587 133.264C709.5 128.36 716.424 125.908 724.357 125.908Z" fill="black"/>
<rect x="12" y="96" width="141" height="141" fill="white" stroke="black" stroke-width="24"/>
<circle cx="105" cy="144" r="12" fill="black"/>
<rect x="93" y="132" width="24" height="24" fill="black"/>
</svg>
